<?xml version="1.0" standalone="no"?>
<!DOCTYPE svg PUBLIC "-//W3C//DTD SVG 20010904//EN"
 "http://www.w3.org/TR/2001/REC-SVG-20010904/DTD/svg10.dtd">
<svg version="1.0" xmlns="http://www.w3.org/2000/svg"
 width="920.000000pt" height="920.000000pt" viewBox="0 0 920.000000 920.000000"
 preserveAspectRatio="xMidYMid meet">

<g transform="translate(0.000000,920.000000) scale(0.100000,-0.100000)"
fill="#000000" stroke="none">
<path d="M4225 8635 c-213 -59 -411 -150 -568 -262 -108 -77 -266 -236 -350
-353 -89 -126 -188 -324 -243 -490 -49 -151 -49 -126 1 50 76 266 201 495 358
657 28 29 48 56 44 59 -19 19 -307 -118 -458 -218 -114 -76 -268 -227 -333
-326 -150 -231 -177 -504 -79 -799 15 -46 31 -83 35 -83 4 0 53 25 108 56 56
31 103 54 105 52 3 -2 -14 -15 -38 -28 -121 -66 -222 -143 -337 -256 -161
-157 -279 -227 -680 -404 -610 -269 -606 -267 -660 -348 -24 -37 -30 -56 -30
-101 0 -69 20 -105 92 -161 35 -28 65 -64 88 -106 69 -126 193 -239 292 -265
41 -11 47 -10 86 15 51 32 52 32 52 1 0 -37 27 -95 58 -128 31 -33 92 -67 121
-67 33 0 41 32 39 157 -4 171 4 186 130 246 114 54 176 71 235 65 122 -14 206
-104 247 -263 40 -155 21 -264 -61 -350 -53 -56 -150 -125 -237 -169 -84 -43
-124 -25 -261 117 -95 99 -129 100 -160 8 -26 -78 -9 -158 49 -231 l31 -39
-33 -17 c-18 -9 -41 -23 -50 -32 -27 -23 -23 -101 8 -180 37 -95 170 -345 194
-367 36 -33 85 -23 236 48 76 35 162 74 190 87 51 21 52 23 79 98 56 157 120
243 212 284 89 39 124 8 143 -121 10 -73 6 -129 -12 -165 -6 -11 -6 -22 0 -28
5 -5 24 9 48 39 100 123 228 230 499 418 376 260 523 401 619 594 73 145 97
254 97 439 0 74 2 132 4 130 2 -2 11 -46 20 -98 20 -126 19 -235 -4 -345 -52
-251 -192 -422 -566 -695 -370 -269 -549 -435 -673 -623 -171 -261 -344 -688
-418 -1033 -25 -116 -28 -149 -28 -324 0 -173 2 -205 23 -280 26 -98 60 -182
70 -175 4 2 13 37 20 77 64 364 267 718 592 1033 206 200 358 317 811 622 321
217 435 301 512 375 28 27 52 48 54 48 8 0 -67 -88 -124 -145 -86 -86 -224
-194 -495 -387 -401 -287 -548 -407 -740 -606 -304 -314 -463 -607 -551 -1016
-19 -86 -22 -134 -22 -316 -2 -596 139 -996 457 -1296 91 -86 283 -228 296
-219 5 2 -13 53 -39 112 -259 581 -362 1295 -260 1788 50 238 157 454 303 611
60 64 203 184 220 184 3 0 -5 -17 -19 -38 -92 -134 -188 -413 -223 -647 -43
-291 -30 -631 33 -890 35 -143 105 -335 122 -335 11 0 13 15 8 82 -8 103 10
330 37 463 40 198 127 421 238 610 80 135 167 258 345 485 311 398 402 529
516 745 69 133 177 372 204 452 10 29 21 55 24 57 4 2 319 -448 700 -1000
l694 -1004 674 0 c371 0 674 3 674 6 0 3 -98 138 -217 301 -231 312 -691 937
-820 1113 -43 58 -190 257 -327 444 -251 340 -259 355 -206 356 8 0 74 18 145
39 327 98 481 176 683 345 270 228 441 475 557 807 210 601 160 1197 -139
1689 -81 132 -166 238 -287 356 -328 319 -672 464 -1224 514 -66 6 -142 13
-170 15 -27 2 -155 5 -283 5 l-233 0 29 43 c16 23 45 71 64 107 20 36 50 89
67 118 17 29 31 57 31 62 0 16 -271 12 -389 -6 -198 -29 -341 -72 -506 -154
-319 -159 -588 -431 -779 -791 -31 -57 -56 -100 -56 -95 0 15 116 247 161 321
120 197 260 361 415 484 55 44 83 81 142 193 40 75 92 198 92 217 0 16 -11 14
-145 -24z m1466 -1543 c382 -94 610 -285 712 -595 25 -80 30 -111 35 -238 3
-91 0 -172 -7 -215 -59 -344 -271 -574 -626 -681 -148 -44 -243 -54 -556 -60
l-297 -6 -17 54 c-24 74 -100 226 -169 336 -98 159 -167 311 -209 461 -18 66
-21 104 -21 262 0 158 3 196 22 262 43 155 134 330 220 421 l27 29 400 -5
c364 -4 408 -6 486 -25z m-2641 -440 c0 -5 -7 -29 -16 -55 -24 -69 -65 -100
-164 -121 -147 -32 -200 -63 -235 -138 l-23 -50 -6 39 c-18 119 -18 133 -1
188 19 58 53 101 94 117 14 5 90 12 170 15 80 3 148 7 150 9 8 7 31 4 31 -4z"/>
<path d="M4847 6930 c-44 -60 -74 -114 -103 -182 -23 -54 -40 -138 -26 -123 4
4 7 12 7 18 1 7 7 11 14 9 9 -2 11 3 7 14 -6 15 -4 15 10 3 16 -13 16 -12 4
11 -13 24 -12 24 5 10 11 -9 16 -10 11 -2 -4 7 -2 12 6 13 7 0 4 4 -7 9 -17 7
-17 9 -2 9 9 1 18 6 18 11 1 6 3 15 4 20 1 6 3 19 4 30 1 13 8 20 22 20 13 0
18 4 13 13 -6 9 -5 9 7 0 13 -11 21 -7 45 20 16 17 20 24 8 14 -17 -14 -21
-14 -21 -2 0 8 4 12 8 9 4 -2 11 1 14 7 4 5 13 8 21 5 16 -6 46 32 37 47 -4 6
-1 7 7 2 9 -6 12 -4 8 6 -4 11 1 15 17 15 13 0 22 -3 19 -7 -2 -4 3 -6 12 -5
8 1 20 9 25 17 7 12 9 12 9 -1 0 -9 3 -11 8 -5 9 13 42 16 43 4 1 -5 2 -13 3
-18 0 -5 5 -13 10 -18 5 -4 6 -3 3 3 -5 8 10 11 49 9 41 -1 57 2 64 14 8 14
10 13 10 -4 1 -20 2 -20 9 0 6 15 18 19 50 20 23 1 45 -3 48 -8 2 -4 10 -4 16
2 19 15 31 14 38 -6 5 -14 18 -18 73 -18 48 -1 71 4 79 14 10 12 9 13 -2 6 -9
-5 -12 -4 -8 2 3 5 16 9 29 7 13 -1 31 -3 41 -3 12 -1 16 -6 11 -13 -5 -10 -4
-10 6 -1 7 6 20 9 29 6 9 -4 13 -3 10 1 -8 8 -50 17 -152 31 -29 4 -36 2 -31
-7 6 -10 5 -10 -7 -1 -10 8 -101 13 -307 15 l-292 3 -33 -45z m682 7 c8 -10 7
-14 -2 -14 -8 0 -14 6 -14 14 0 7 1 13 2 13 2 0 8 -6 14 -13z m-596 -58 c-8
-8 -13 -7 -18 2 -5 8 -4 10 3 5 7 -4 12 -2 12 5 0 7 3 9 7 6 4 -4 2 -12 -4
-18z m-68 -48 c3 -5 2 -12 -3 -15 -5 -3 -9 1 -9 9 0 17 3 19 12 6z"/>
<path d="M5700 6917 c0 -18 2 -19 10 -7 8 13 10 13 10 -2 0 -9 4 -19 9 -22 5
-4 7 4 4 16 -4 19 -3 20 6 6 7 -10 19 -14 33 -10 16 4 19 2 13 -8 -5 -9 -4
-11 3 -6 6 4 20 2 31 -4 15 -7 22 -7 27 2 4 7 4 10 0 6 -5 -4 -25 2 -46 13
-20 11 -51 24 -69 29 -28 8 -31 6 -31 -13z"/>
<path d="M4691 6554 c0 -11 3 -14 6 -6 3 7 2 16 -1 19 -3 4 -6 -2 -5 -13z"/>
<path d="M4683 6480 c0 -25 2 -35 4 -22 2 12 2 32 0 45 -2 12 -4 2 -4 -23z"/>
<path d="M4675 6419 c-4 -6 -5 -12 -2 -15 2 -3 7 2 10 11 7 17 1 20 -8 4z"/>
<path d="M4681 6364 c0 -11 3 -14 6 -6 3 7 2 16 -1 19 -3 4 -6 -2 -5 -13z"/>
<path d="M7659 5823 c0 -5 -3 -19 -5 -32 -2 -14 -2 -22 1 -19 8 8 17 58 10 58
-3 0 -5 -3 -6 -7z"/>
<path d="M7633 5715 c0 -8 4 -12 9 -9 5 3 6 10 3 15 -9 13 -12 11 -12 -6z"/>
<path d="M7619 5653 c-18 -54 -19 -62 -4 -56 8 2 12 10 9 17 -3 7 0 25 6 41 6
15 9 30 6 32 -2 2 -10 -13 -17 -34z"/>
<path d="M7551 5466 c-10 -24 -22 -55 -26 -67 -21 -64 -133 -267 -201 -364
-129 -181 -368 -409 -549 -522 -111 -70 -255 -134 -418 -188 -54 -18 -97 -36
-96 -41 3 -16 47 -64 59 -64 6 0 8 -5 4 -12 -5 -9 -3 -9 9 1 9 7 14 17 11 22
-3 5 10 10 28 10 30 2 31 2 6 6 -18 3 -28 10 -28 21 0 15 2 15 10 2 9 -13 10
-13 10 0 0 12 2 12 9 2 6 -11 9 -9 13 5 3 11 12 20 21 20 9 0 14 -5 11 -11 -3
-6 1 -3 9 7 13 16 15 16 21 2 4 -11 2 -14 -7 -9 -7 5 -6 0 3 -10 13 -17 15
-17 35 8 20 25 22 25 39 8 18 -16 18 -16 6 8 -7 14 -9 22 -5 18 5 -4 14 -3 21
3 8 7 14 6 20 -2 5 -8 3 -9 -6 -4 -9 6 -11 4 -5 -5 6 -9 4 -11 -5 -5 -9 5 -11
4 -6 -4 11 -17 39 7 31 28 -3 11 0 9 11 -4 12 -14 15 -15 11 -4 -3 9 0 22 6
28 6 6 7 11 3 11 -5 0 -3 6 3 14 14 16 54 9 44 -8 -4 -6 1 -5 10 3 19 15 23
26 5 15 -7 -5 -8 -3 -4 5 5 7 10 10 13 7 3 -2 15 -1 27 4 13 5 30 4 42 -2 15
-9 17 -8 7 2 -10 11 -9 16 5 27 11 9 11 12 2 7 -10 -5 -9 -1 4 14 16 19 36 22
36 6 0 -3 -5 -2 -12 2 -7 4 -8 3 -4 -5 10 -16 29 -2 21 16 -5 14 -3 14 12 2
14 -12 16 -12 8 0 -6 11 -4 13 7 8 16 -6 38 10 38 28 0 5 -5 3 -10 -5 -5 -8
-10 -10 -10 -4 0 18 13 24 27 12 11 -8 12 -7 8 5 -4 8 -2 17 3 21 5 3 9 -1 10
-9 1 -8 3 -22 4 -30 1 -12 6 -11 25 7 25 24 30 44 11 51 -10 4 -10 6 0 6 8 1
10 6 6 14 -4 6 -4 9 1 5 4 -4 15 0 23 10 10 12 9 9 -2 -10 -10 -17 -12 -29 -6
-33 6 -4 10 -3 9 2 -1 4 5 23 13 42 10 22 17 29 21 20 4 -10 6 -9 6 4 1 11 5
15 13 11 8 -5 9 -2 5 10 -4 9 -3 15 2 11 5 -3 11 0 13 7 3 7 7 5 11 -6 4 -11
3 -15 -4 -10 -8 4 -7 0 0 -15 13 -24 19 -27 18 -8 0 6 1 21 2 32 1 17 3 18 11
5 8 -13 10 -12 11 5 1 11 1 23 1 26 -1 3 6 6 13 6 10 0 12 -4 5 -12 -7 -8 -5
-12 5 -12 7 0 13 5 12 11 -1 6 4 10 11 8 8 -1 11 2 7 8 -3 6 -11 8 -16 5 -5
-4 -9 -1 -9 5 0 6 -4 9 -8 6 -5 -3 -9 1 -9 9 0 10 5 11 18 4 20 -10 27 -3 24
28 -1 16 3 20 18 17 14 -2 16 0 8 10 -8 10 -6 17 7 29 17 15 18 14 20 -10 2
-31 12 -44 12 -17 0 10 10 30 21 44 l20 25 -12 -25 c-15 -28 -21 -55 -11 -45
4 4 7 10 8 13 2 20 17 41 25 36 5 -3 6 2 3 10 -3 9 -16 17 -28 17 -17 1 -17 2
-3 6 9 2 15 8 12 13 -3 5 0 12 6 16 7 4 9 3 5 -4 -3 -6 -2 -13 3 -16 5 -4 8 5
6 19 -1 14 2 28 8 32 6 3 7 1 3 -5 -3 -6 -2 -13 3 -16 5 -4 8 5 6 19 -2 19 1
23 10 15 8 -7 12 -6 13 3 2 28 9 47 15 45 8 -4 36 35 31 44 -2 4 1 10 7 14 8
5 9 3 4 -6 -5 -9 -4 -11 4 -6 9 6 9 11 -1 24 -11 13 -11 14 1 7 11 -6 13 -4 7
10 -5 15 -4 16 8 6 12 -10 13 -9 9 8 -3 13 -1 21 6 21 7 0 9 5 5 12 -5 7 -2 9
8 6 8 -4 15 0 15 8 0 7 -4 11 -9 8 -4 -3 -8 -3 -8 0 0 3 16 12 36 21 19 8 33
19 30 24 -4 5 -2 13 4 16 8 5 8 11 0 20 -8 10 -8 15 1 21 8 5 9 3 4 -6 -5 -9
-4 -11 4 -6 9 6 9 11 -1 24 -9 11 -10 14 -1 8 9 -5 12 1 9 22 -3 25 0 29 21
26 12 -1 21 2 18 6 -3 5 -1 12 5 15 8 5 7 12 -2 23 -11 14 -10 15 7 9 l20 -7
-20 16 c-20 16 -20 16 1 12 15 -4 20 0 21 16 0 12 3 30 7 41 5 14 2 12 -8 -5
l-16 -25 6 30 c4 17 11 40 15 53 15 39 1 24 -20 -22z m-11 -130 c0 -2 -7 -9
-15 -16 -13 -11 -14 -10 -9 4 5 14 24 23 24 12z m-70 -160 c0 -2 -7 -7 -16
-10 -8 -3 -12 -2 -9 4 6 10 25 14 25 6z m-333 -441 c0 -8 -4 -12 -9 -9 -5 3
-6 10 -3 15 9 13 12 11 12 -6z m-208 -221 c-14 -13 -16 -13 -16 0 0 8 4 13 9
10 4 -3 8 0 8 7 0 7 3 9 7 5 4 -3 0 -13 -8 -22z m-458 -237 c-10 -9 -11 -8 -5
6 3 10 9 15 12 12 3 -3 0 -11 -7 -18z"/>
<path d="M2166 5420 c-38 -16 -74 -34 -79 -39 -11 -11 -10 -152 2 -163 3 -4 7
0 8 10 3 61 8 72 29 72 12 0 25 6 27 13 4 8 6 7 6 -3 1 -9 6 -5 14 10 7 14 18
25 24 25 6 0 15 3 19 7 4 4 14 2 22 -5 9 -6 13 -7 10 -2 -4 6 0 21 8 35 8 15
13 19 14 10 0 -13 2 -13 9 -1 5 8 17 16 25 17 9 1 14 -2 11 -6 -3 -5 0 -12 6
-16 8 -5 9 -3 4 6 -6 10 -4 12 8 7 27 -10 -2 29 -30 42 -36 17 -62 13 -137
-19z"/>
<path d="M2215 5340 c-4 -6 -10 -8 -15 -5 -14 9 -23 -16 -11 -28 9 -9 11 -8 6
5 -5 13 -2 16 12 13 12 -2 20 2 20 11 0 17 -4 18 -12 4z"/>
<path d="M7352 4976 c1 -14 6 -22 10 -20 4 3 4 12 1 21 -5 12 -3 14 7 8 9 -5
11 -4 6 3 -12 20 -26 13 -24 -12z"/>
<path d="M7175 4790 c-3 -5 -1 -10 4 -10 6 0 11 5 11 10 0 6 -2 10 -4 10 -3 0
-8 -4 -11 -10z"/>
<path d="M2711 4364 c-23 -38 -47 -102 -53 -139 -2 -11 -5 -22 -8 -25 -3 -3
-13 -21 -23 -41 -18 -34 -55 -58 -157 -102 -100 -43 -280 -132 -280 -139 0 -4
7 -4 17 -1 10 4 14 2 10 -4 -4 -6 1 -17 11 -24 16 -13 16 -13 2 5 -14 18 -13
19 4 13 16 -6 17 -5 6 8 -11 13 -10 14 5 9 13 -5 16 -4 11 4 -4 7 -2 12 3 12
6 0 11 -6 11 -12 0 -10 2 -10 9 0 11 19 15 19 34 3 14 -11 18 -11 23 4 5 13 9
14 15 3 7 -10 9 -11 9 0 0 7 4 11 10 7 5 -3 18 3 29 14 13 13 21 16 25 8 2 -7
5 -4 5 5 1 9 5 20 11 23 6 3 7 -1 4 -9 -10 -26 4 -18 21 12 9 15 14 19 11 10
-3 -10 -1 -20 5 -23 5 -4 9 -3 8 2 -3 19 2 33 12 33 5 0 7 -5 3 -12 -4 -7 -3
-8 5 -4 9 6 9 11 -1 24 -11 13 -11 14 8 4 16 -9 21 -8 21 3 0 8 -5 11 -10 8
-6 -3 -7 -1 -3 5 11 19 26 14 26 -9 0 -12 4 -17 11 -14 6 4 8 14 5 22 -3 8 -1
11 4 8 9 -5 14 6 12 26 -1 3 5 6 13 6 11 0 10 -5 -2 -26 -12 -21 -12 -22 -1
-9 8 10 17 16 19 13 3 -2 5 5 6 15 1 11 -3 20 -8 20 -5 0 1 15 13 34 13 19 26
32 30 30 4 -3 5 3 1 12 -5 13 -3 15 7 9 9 -5 11 -4 6 3 -4 7 -2 12 4 12 6 0 9
4 6 9 -4 5 0 12 6 14 9 4 9 6 -2 6 -10 1 -8 6 8 17 12 8 22 26 22 38 0 13 7
43 15 66 20 55 13 61 -14 14z"/>
<path d="M6616 4371 c-4 -5 -2 -12 3 -15 5 -4 12 -2 15 3 4 5 2 12 -3 15 -5 4
-12 2 -15 -3z"/>
<path d="M6500 4291 c0 -6 4 -13 10 -16 6 -3 7 1 4 9 -7 18 -14 21 -14 7z"/>
<path d="M2703 4230 c1 -21 10 -18 13 5 1 8 -2 15 -6 15 -5 0 -8 -9 -7 -20z"/>
<path d="M2423 3953 c-13 -2 -23 -8 -23 -13 0 -10 38 -1 46 11 3 5 4 8 2 8 -2
-1 -13 -4 -25 -6z"/>
<path d="M4910 3862 c0 -8 -27 -68 -60 -135 -33 -67 -58 -128 -55 -136 3 -9 3
-12 -1 -8 -9 8 -25 -14 -63 -85 -29 -56 -170 -279 -181 -288 -7 -6 -90 -118
-105 -142 -14 -23 -98 -130 -124 -159 -20 -21 -104 -128 -198 -252 -31 -42
-111 -155 -164 -232 -37 -54 -139 -250 -144 -276 -2 -12 -10 -28 -17 -36 -11
-14 -20 -36 -63 -171 -8 -23 -10 -40 -5 -37 6 4 10 16 10 27 0 29 9 18 12 -15
1 -14 5 -24 9 -21 4 2 5 14 1 26 -4 16 -2 19 9 13 8 -5 11 -4 6 0 -4 5 0 19 8
32 14 21 14 24 0 29 -8 3 -15 13 -15 21 0 8 4 11 10 8 6 -3 7 1 4 10 -4 9 1
22 12 31 11 9 12 13 4 9 -8 -4 -5 2 8 13 13 13 18 22 10 24 -7 3 -2 12 12 26
13 12 27 19 31 16 5 -2 15 8 23 24 12 23 12 32 3 42 -9 10 -9 11 1 6 8 -5 13
1 14 16 0 13 1 30 2 38 1 9 13 16 30 18 22 3 26 6 15 13 -11 7 -11 9 4 9 9 0
17 3 18 8 2 24 8 45 15 50 4 4 4 -1 1 -10 -3 -10 -1 -20 5 -24 6 -4 8 -3 5 2
-3 6 -2 16 3 24 5 8 5 19 -1 26 -6 8 -2 10 16 9 22 -3 24 -1 14 17 -7 14 -8
18 0 14 5 -4 18 5 27 19 9 13 20 22 25 19 5 -3 6 3 2 12 -5 13 -3 15 8 9 12
-8 12 -6 0 9 -12 14 -12 17 0 14 8 -2 15 7 17 21 3 19 6 21 14 10 7 -10 8 -8
5 9 -4 18 -3 21 7 12 10 -7 17 -6 25 4 10 12 8 17 -7 25 -11 6 -23 7 -28 3 -5
-4 -2 2 6 13 22 30 24 32 17 12 -4 -12 -3 -16 4 -11 6 3 8 15 6 26 -4 15 -3
17 8 8 11 -9 12 -7 8 12 -4 19 -3 20 7 8 10 -12 11 -11 7 8 -3 12 -1 20 4 16
5 -3 10 -17 10 -32 2 -24 2 -24 6 -4 2 12 9 20 14 17 5 -3 17 8 27 24 10 17
22 28 27 23 4 -4 3 3 -4 15 -8 16 -8 23 2 26 7 3 6 6 -5 6 -9 1 -19 -5 -21
-11 -4 -10 -6 -10 -6 0 -1 8 8 16 19 19 11 3 21 9 21 14 1 5 2 13 3 17 2 12
66 89 65 77 -1 -5 -1 -19 0 -30 1 -16 3 -17 10 -6 5 8 8 23 6 33 -2 10 0 16 6
13 5 -4 7 -10 4 -15 -3 -5 0 -12 7 -16 7 -4 10 -4 6 1 -4 4 -3 14 3 21 9 11 6
16 -12 23 -18 7 -19 10 -6 10 15 1 22 19 18 44 -1 5 3 6 9 2 6 -3 7 -12 3 -18
-4 -7 1 -6 10 2 14 11 15 17 5 28 -9 11 -7 15 9 19 11 3 24 15 29 27 6 12 9
15 7 7 -1 -8 5 -4 15 10 9 13 25 31 34 39 14 12 15 18 5 30 -10 12 -9 13 2 6
11 -6 13 -4 7 10 -6 16 -4 16 10 4 16 -13 16 -12 4 11 -12 23 -12 24 3 11 14
-11 18 -11 24 5 3 11 11 22 17 26 7 5 7 8 -2 8 -7 0 -17 -10 -22 -22 -6 -16
-9 -18 -9 -7 -1 22 20 38 52 41 22 2 24 5 15 23 -10 19 -10 19 7 5 10 -8 16
-10 12 -3 -4 6 -3 14 2 18 5 3 10 13 10 23 2 60 13 79 48 85 13 2 26 7 30 12
5 4 3 5 -3 2 -7 -4 -15 0 -18 8 -3 10 1 18 12 22 22 8 32 23 32 49 0 11 7 29
16 40 15 18 15 18 5 -3 -6 -12 -11 -28 -11 -35 1 -7 7 1 14 17 14 31 11 50 -5
40 -5 -4 -9 1 -9 9 0 9 6 15 13 13 6 -1 12 6 12 15 0 24 15 35 16 12 1 -10 1
-23 0 -27 -1 -5 3 -6 8 -2 6 3 7 13 4 22 -5 11 -3 14 6 8 10 -6 11 -3 3 11 -6
12 -6 27 -1 39 9 18 9 18 5 -2 -2 -13 1 -26 7 -30 7 -3 9 -3 5 1 -10 12 13 67
25 59 6 -3 7 -1 3 5 -4 7 -13 12 -21 12 -8 0 -11 7 -8 20 3 11 9 17 14 14 5
-3 8 -2 7 3 -4 15 13 53 22 48 5 -3 12 0 16 6 4 8 3 9 -4 5 -7 -4 -12 -1 -12
8 0 9 5 15 11 14 6 -2 14 4 16 12 4 13 3 13 -6 0 -8 -11 -11 -11 -11 -2 0 17
42 32 57 20 8 -6 10 -4 7 9 -7 25 -44 71 -44 55z m-179 -445 c-10 -9 -11 -8
-5 6 3 10 9 15 12 12 3 -3 0 -11 -7 -18z m-486 -707 c-17 -33 -21 -35 -31 -18
-4 6 -3 8 3 5 6 -4 15 5 21 18 7 14 14 25 17 25 3 0 -1 -13 -10 -30z m-85
-124 c0 -3 -4 -8 -10 -11 -5 -3 -10 -1 -10 4 0 6 5 11 10 11 6 0 10 -2 10 -4z
m-110 -116 c0 -11 -7 -20 -15 -20 -8 0 -15 8 -15 18 0 14 2 15 10 2 8 -13 10
-12 10 3 0 9 2 17 5 17 3 0 5 -9 5 -20z m-172 -285 c-6 -14 -13 -23 -15 -21
-5 5 15 46 22 46 3 0 -1 -11 -7 -25z m-100 -214 c-7 -9 -13 -18 -15 -20 -1 -2
-1 5 0 16 0 11 7 20 14 20 10 0 10 -4 1 -16z"/>
<path d="M4718 3383 c7 -3 16 -2 19 1 4 3 -2 6 -13 5 -11 0 -14 -3 -6 -6z"/>
<path d="M4428 2983 c7 -3 16 -2 19 1 4 3 -2 6 -13 5 -11 0 -14 -3 -6 -6z"/>
<path d="M4312 2839 c-14 -17 -18 -30 -12 -34 6 -4 9 -1 8 7 -2 7 4 12 12 10
8 -2 12 0 8 4 -4 4 -3 13 4 21 6 7 9 15 7 17 -2 2 -14 -9 -27 -25z"/>
<path d="M6430 2021 c0 -6 4 -13 10 -16 6 -3 7 1 4 9 -7 18 -14 21 -14 7z"/>
<path d="M6511 2012 c-1 -19 -4 -21 -19 -13 -14 7 -19 6 -19 -4 0 -8 4 -12 9
-9 4 3 14 2 21 -3 18 -11 38 -13 31 -2 -3 5 0 9 5 9 6 0 11 -6 11 -12 0 -9 3
-8 10 2 7 11 4 17 -8 22 -13 6 -12 7 5 5 12 -1 22 2 23 8 0 5 -11 10 -25 11
-19 1 -25 -4 -26 -20 -1 -19 -2 -18 -9 4 -8 24 -8 24 -9 2z"/>
<path d="M6595 2021 c3 -2 -3 -13 -12 -23 -13 -14 -14 -21 -4 -31 9 -9 13 -7
17 9 5 17 13 20 72 19 37 -1 73 3 80 8 9 7 11 6 6 -6 -10 -27 7 -43 23 -22 13
18 13 18 14 -1 0 -19 1 -19 8 0 7 19 8 19 15 0 7 -19 8 -19 22 0 14 20 14 20
15 0 0 -19 1 -19 8 0 7 18 8 18 14 2 9 -24 30 -9 23 17 -3 14 -2 17 6 9 6 -6
17 -8 26 -5 11 5 13 3 7 -7 -6 -10 -4 -11 6 -4 8 5 33 9 57 9 34 1 46 -3 54
-19 10 -19 11 -19 24 -1 14 18 14 18 15 -1 0 -19 1 -19 8 0 7 19 8 19 15 0 7
-19 8 -19 22 0 14 20 14 20 15 0 0 -19 1 -19 8 0 7 18 8 18 14 2 9 -23 30 -9
24 16 -4 13 -2 17 6 10 15 -10 127 -10 144 1 8 5 11 1 8 -13 -4 -23 10 -36 21
-19 5 8 3 9 -7 4 -8 -5 -11 -4 -6 1 13 14 56 12 68 -3 9 -10 15 -10 25 -2 8 6
14 8 14 4 0 -5 9 0 21 11 12 10 30 19 42 19 11 0 22 7 24 15 4 13 3 13 -6 0
-7 -9 -11 -10 -11 -3 0 6 -9 11 -20 10 -11 -1 -20 -7 -20 -14 0 -7 -4 -13 -10
-13 -5 0 -7 8 -4 18 5 13 4 14 -4 3 -6 -8 -8 -21 -5 -30 4 -13 3 -13 -5 -2 -6
8 -8 21 -5 30 3 12 2 12 -7 -2 -6 -9 -9 -21 -6 -25 3 -5 -1 -9 -9 -9 -10 0
-11 5 -4 18 5 10 9 19 9 21 0 2 -193 3 -430 4 -236 0 -427 -2 -425 -5z"/>
<path d="M7396 1968 c3 -5 10 -6 15 -3 13 9 11 12 -6 12 -8 0 -12 -4 -9 -9z"/>
<path d="M3719 1873 c-13 -16 -12 -17 4 -4 16 13 21 21 13 21 -2 0 -10 -8 -17
-17z"/>
<path d="M3705 1838 c-17 -49 -25 -112 -15 -122 7 -7 11 -7 10 -1 -5 24 1 56
9 51 4 -3 7 8 5 24 -2 16 1 32 6 35 6 3 10 10 10 16 0 13 -20 11 -25 -3z"/>
</g>
</svg>
